<svg xmlns="http://www.w3.org/2000/svg" xmlns:xlink="http://www.w3.org/1999/xlink" width="134" height="32" viewBox="0 0 134 32"><defs><clipPath id="a"><path d="M.779-83.5H32.3v31.995H.779Z" transform="translate(-0.779 83.5)" fill="#11837b" clip-rule="evenodd"/></clipPath><clipPath id="b"><path d="M-98,449.446H392.251V-166H-98Z" transform="translate(98 166)" fill="#11837b"/></clipPath><clipPath id="c"><rect width="31.981" height="32.371" fill="#11837b"/></clipPath><clipPath id="d"><path d="M16.776-62.178A5.325,5.325,0,0,1,11.451-67.5a5.325,5.325,0,0,1,5.325-5.325,5.327,5.327,0,0,1,5.167,4.037L32.3-71.374A16,16,0,0,0,16.776-83.5c-.331,0-.659.011-.984.031v9.751L12.777-83a15.833,15.833,0,0,0-1.873.608l3.015,9.278L8.186-81a16.1,16.1,0,0,0-1.592,1.158l5.732,7.89-7.89-5.732a16.055,16.055,0,0,0-1.158,1.592l7.89,5.733L1.89-73.375A15.908,15.908,0,0,0,1.282-71.5l9.278,3.014H.81c-.02.326-.031.654-.031.984s.011.659.031.984h9.75L1.282-63.5a15.924,15.924,0,0,0,.608,1.872l9.278-3.015-7.89,5.733a16.1,16.1,0,0,0,1.158,1.592l7.89-5.732L6.594-55.164a16.04,16.04,0,0,0,1.592,1.158l5.733-7.89L10.9-52.618a15.906,15.906,0,0,0,1.873.608l3.014-9.278v9.751c.326.02.654.031.984.031A16,16,0,0,0,32.3-63.632L21.943-66.215a5.327,5.327,0,0,1-5.167,4.037" transform="translate(-0.779 83.5)" fill="#11837b" clip-rule="evenodd"/></clipPath><clipPath id="e"><path d="M0-51.629H31.981V-84H0Z" transform="translate(0 84)" fill="#11837b"/></clipPath><clipPath id="f"><path d="M244.072-54.006a2.19,2.19,0,0,1-2.19,2.19,2.19,2.19,0,0,1-2.19-2.19V-64.427a2.19,2.19,0,0,1,2.19-2.189,2.189,2.189,0,0,1,2.19,2.189Zm-2.19-15.881a10.389,10.389,0,0,0-10.108,10.649,10.39,10.39,0,0,0,10.108,10.65,10.39,10.39,0,0,0,10.108-10.65A10.389,10.389,0,0,0,241.882-69.887Z" transform="translate(-231.775 69.887)" fill="#11837b" clip-rule="evenodd"/></clipPath><clipPath id="h"><path d="M118.957-64.418a2.189,2.189,0,0,1,2.19-2.19,2.19,2.19,0,0,1,2.19,2.19V-60.8l-4.379,1.129ZM123.336-54a2.189,2.189,0,0,1-2.19,2.189A2.189,2.189,0,0,1,118.957-54v-3.137l4.379-1.129L131.2-60.29a11.1,11.1,0,0,0-.5-2.406,10.166,10.166,0,0,0-9.557-7.181,10.39,10.39,0,0,0-10.108,10.65,11.282,11.282,0,0,0,.11,1.572,11.012,11.012,0,0,0,.611,2.378,10.13,10.13,0,0,0,9.387,6.7,10.049,10.049,0,0,0,8.921-5.642l-6.731-1.764Z" transform="translate(-111.039 69.878)" fill="#11837b" clip-rule="evenodd"/></clipPath><clipPath id="j"><path d="M302.777-64.418a2.189,2.189,0,0,1,2.189-2.19,2.19,2.19,0,0,1,2.19,2.19V-60.8l-4.379,1.129ZM307.156-54a2.19,2.19,0,0,1-2.19,2.189A2.189,2.189,0,0,1,302.777-54v-3.137l4.379-1.129,7.867-2.028a11.052,11.052,0,0,0-.5-2.406,10.165,10.165,0,0,0-9.557-7.181,10.39,10.39,0,0,0-10.108,10.65,11.343,11.343,0,0,0,.11,1.572,11.039,11.039,0,0,0,.611,2.378,10.13,10.13,0,0,0,9.386,6.7,10.049,10.049,0,0,0,8.921-5.642l-6.731-1.764Z" transform="translate(-294.858 69.878)" fill="#11837b" clip-rule="evenodd"/></clipPath><clipPath id="l"><path d="M186.5-55.985V-54a2.19,2.19,0,0,1-2.19,2.19,2.19,2.19,0,0,1-2.19-2.19V-64.418a2.19,2.19,0,0,1,2.19-2.189,2.189,2.189,0,0,1,2.19,2.189v2.04l6.784-1.749a10.058,10.058,0,0,0-8.974-5.751,10.39,10.39,0,0,0-10.108,10.65,10.389,10.389,0,0,0,10.108,10.65,10.05,10.05,0,0,0,8.921-5.642Z" transform="translate(-174.206 69.878)" fill="#11837b" clip-rule="evenodd"/></clipPath><clipPath id="o"><rect width="134" height="32"/></clipPath></defs><g id="n" clip-path="url(#o)"><g transform="translate(-0.5 -0.414)" clip-path="url(#a)"><g transform="translate(-38.525 -32.176)" clip-path="url(#b)"><g transform="translate(38.222 31.981)" clip-path="url(#c)"><g transform="translate(0.304 0.195)" clip-path="url(#d)"><g transform="translate(-0.304 -0.195)" clip-path="url(#e)"><path d="M-4.221-52.606H31.2V-88.5H-4.221Z" transform="translate(2.575 86.745)" fill="#11837b"/></g></g></g></g></g><g transform="translate(89.592 4.895)" clip-path="url(#f)"><g transform="translate(-128.618 -37.486)" clip-path="url(#b)"><path d="M226.775-49.687H250.89v-25.2H226.775Z" transform="translate(-100.107 110.422)" fill="#11837b"/></g></g><g transform="translate(42.504 4.899)" clip-path="url(#h)"><g transform="translate(-81.528 -37.489)" clip-path="url(#b)"><path d="M106.038-49.678H130.1v-25.2H106.038Z" transform="translate(-26.46 110.417)" fill="#11837b"/></g></g><g transform="translate(114.195 4.899)" clip-path="url(#j)"><g transform="translate(-153.221 -37.489)" clip-path="url(#b)"><path d="M289.858-49.678h24.065v-25.2H289.858Z" transform="translate(-138.587 110.417)" fill="#11837b"/></g></g><g transform="translate(67.139 4.898)" clip-path="url(#l)"><g transform="translate(-106.165 -37.489)" clip-path="url(#b)"><path d="M169.206-49.678h22.982v-25.2H169.206Z" transform="translate(-64.991 110.417)" fill="#11837b"/></g></g></g></svg>