<svg width="72" height="72" viewBox="0 0 72 72" fill="none" xmlns="http://www.w3.org/2000/svg">
<mask id="mask0" mask-type="alpha" maskUnits="userSpaceOnUse" x="0" y="0" width="72" height="72">
<path d="M72 49.5792C72 50.4351 72 51.2911 71.995 52.1483C71.9912 52.869 71.9824 53.5897 71.9623 54.3105C71.9197 55.8797 71.8256 57.4651 71.5432 59.0169C71.2571 60.5936 70.7903 62.0611 70.0512 63.4939C69.3272 64.9006 68.3811 66.1882 67.2517 67.3047C66.1224 68.4212 64.8186 69.3577 63.3956 70.0735C61.9475 70.8029 60.4643 71.2656 58.8694 71.5485C57.2984 71.8276 55.6959 71.9206 54.1073 71.9628C51.053 72 50.1872 72 49.3214 72H32.6257H22.6799C19.3521 71.9901 18.623 71.9826 17.8939 71.9628C16.3053 71.9206 14.7029 71.8276 13.1318 71.5485C11.5369 71.2656 10.0537 70.8029 8.60565 70.0735C7.18142 69.3577 5.8789 68.4212 4.74955 67.3047C3.6202 66.1882 2.67405 64.9006 1.94876 63.4939C1.21091 62.0611 0.744117 60.5936 0.45676 59.0169C0.174422 57.4651 0.0815642 55.8797 0.0388999 54.3105C0.0188225 53.5897 0.0100387 52.869 0.00627417 52.1483C0 51.2911 0 50.4351 0 49.5792V39.747V32.253V22.4208C0 21.5649 0 20.7077 0.00627417 19.853C0.0100387 19.131 0.0188225 18.4103 0.0388999 17.6895C0.0815642 16.1191 0.174422 14.5349 0.45676 12.9818C0.744117 11.4052 1.21091 9.93889 1.94876 8.50611C2.67405 7.09814 3.6202 5.8105 4.74955 4.69529C5.8789 3.5776 7.18142 2.64227 8.60565 1.9265C10.0537 1.19708 11.5369 0.734376 13.1318 0.451542C14.7029 0.17243 16.3053 0.079392 17.8939 0.037215C20.9482 0 21.814 0 22.6799 0H32.6257H48.6111L39.3743 0.0037215L49.3214 0C52.6479 0.009924 53.377 0.017367 54.1073 0.037215C55.6959 0.079392 57.2984 0.17243 58.8694 0.451542C60.4643 0.734376 61.9475 1.19708 63.3956 1.9265C64.8186 2.64227 66.1224 3.5776 67.2517 4.69529C68.3811 5.8105 69.3272 7.09814 70.0512 8.50611C70.7903 9.93889 71.2571 11.4052 71.5432 12.9818C71.8256 14.5349 71.9197 16.1191 71.9623 17.6895C71.9824 18.4103 71.9912 19.131 71.995 19.853C72 20.7077 72 21.5649 72 22.4208V32.253V39.747V49.5792Z" fill="white"/>
</mask>
<g mask="url(#mask0)">
<path d="M72 0H0V72H72V0Z" fill="#5EC928"/>
<path fill-rule="evenodd" clip-rule="evenodd" d="M47.4434 33.808L39.4389 32.9516L41.387 31.3745C39.3322 29.319 36.1895 28.6414 33.4633 29.7724C30.6932 30.9196 28.9242 33.6038 28.9577 36.6082L22.7102 36.6775C22.6489 31.0995 25.9326 26.1163 31.0765 23.9844C36.3467 21.8025 42.4783 23.2255 46.2739 27.4214L48.2975 25.7834L47.4434 33.808ZM46.3648 44.6154C44.9676 46.3524 43.164 47.7041 41.0664 48.5709C39.4316 49.2462 37.7112 49.5717 36.0046 49.5717C32.2915 49.5717 28.6561 48.0162 26.0882 45.1963L24.0831 46.8208L24.9141 38.916L32.8181 39.7443L30.8954 41.3013C32.9255 43.3176 36.0262 43.9775 38.7108 42.8696C40.1446 42.2756 41.3245 41.2636 42.1223 39.9396L43.0222 38.4476H56.3991C56.7643 35.1282 56.327 31.6723 54.9618 28.3686C50.6254 17.8763 38.6026 12.8862 28.1102 17.2226C17.616 21.5602 12.6258 33.5811 16.9627 44.0734C21.3007 54.565 33.3223 59.5547 43.815 55.2183C48.8726 53.1277 52.6347 49.245 54.7068 44.6154H46.3648Z" fill="white"/>
<mask id="mask1" mask-type="alpha" maskUnits="userSpaceOnUse" x="15" y="15" width="42" height="42">
<path d="M28.1101 17.2229C17.6159 21.5605 12.6253 33.5814 16.9621 44.0737C21.3001 54.5649 33.3218 59.5547 43.8145 55.2186C48.8721 53.128 52.6338 49.2453 54.7066 44.6154H46.3646C44.9674 46.3527 43.1634 47.7045 41.0663 48.5712C39.431 49.2461 37.711 49.5716 36.0041 49.5716C32.2909 49.5716 28.6556 48.0161 26.0881 45.1967L24.083 46.8211L24.9135 38.916L32.8175 39.7446L30.8952 41.3017C32.9254 43.3175 36.026 43.9778 38.7103 42.8695C40.1441 42.2759 41.324 41.2635 42.1218 39.9399L43.0221 38.4476H56.3989C56.7637 35.1281 56.3261 31.6723 54.9613 28.3686C51.6865 20.4449 44.0263 15.6589 35.954 15.6589C33.3376 15.6589 30.6788 16.1613 28.1101 17.2229ZM31.0759 23.9848C36.3462 21.8025 42.4781 23.2259 46.2733 27.4213L48.2969 25.7837L47.4433 33.8079L39.4383 32.952L41.3864 31.3745C39.3316 29.3189 36.1894 28.6413 33.4628 29.7727C30.6926 30.9195 28.9237 33.6038 28.9572 36.6081L22.7097 36.6778C22.6484 31.0994 25.932 26.1166 31.0759 23.9848Z" fill="white"/>
</mask>
<g mask="url(#mask1)">
<path fill-rule="evenodd" clip-rule="evenodd" d="M10.8286 61.3521H61.0913V11.0894H10.8286V61.3521Z" fill="white"/>
</g>
</g>
</svg>
