<svg width="72" height="52" viewBox="0 0 72 52" fill="none" xmlns="http://www.w3.org/2000/svg">
<path d="M65.254 49.6955C65.254 49.6955 65.5913 49.2458 65.4789 48.796C65.3664 48.3463 64.9167 48.2339 64.1297 48.5712C63.4551 48.9085 62.3307 49.4706 61.9934 49.5831C61.9934 49.5831 59.7448 50.7074 59.0702 50.9323C58.3956 51.1571 56.4842 51.6069 55.135 50.1452C53.7858 48.6836 53.7858 46.4349 54.6853 44.636C55.5847 45.1982 57.3837 46.5474 57.3837 46.5474C57.3837 46.5474 57.0464 46.9971 57.1588 47.4468C57.2712 47.8966 57.6085 48.009 58.508 47.6717C59.295 47.3344 60.7567 46.6598 60.7567 46.6598C61.094 46.4349 63.0053 45.5355 63.5675 45.3106C64.1297 45.0857 66.1535 44.636 67.5027 46.0976C68.8519 47.5593 68.8519 49.8079 67.9524 51.6069C67.0529 50.9323 65.254 49.6955 65.254 49.6955ZM60.4194 44.2987C55.9221 44.2987 52.3242 40.7008 52.3242 36.2035C52.3242 31.7062 55.9221 28.1083 60.4194 28.1083H66.7156C66.9405 28.1083 67.6151 28.1083 68.5146 27.2088C69.8638 28.6705 70.8757 29.9072 70.8757 29.9072C70.8757 29.9072 69.6389 31.4813 68.0648 31.5937H67.0529C68.0648 32.9429 68.5146 34.517 68.5146 36.2035C68.5146 40.5884 65.0291 44.2987 60.6442 44.2987H60.4194ZM55.8096 36.2035C55.8096 38.7895 57.8334 40.8133 60.4194 40.8133C63.0053 40.8133 65.0291 38.7895 65.0291 36.2035C65.0291 33.6175 63.0053 31.5937 60.4194 31.5937C57.9458 31.5937 55.8096 33.6175 55.8096 36.2035ZM18.7066 35.8662C18.7066 31.3689 22.3045 27.771 26.8018 27.771C31.2992 27.771 34.897 31.3689 34.897 35.8662C34.897 40.3635 31.2992 43.9614 26.8018 43.9614C22.3045 43.849 18.7066 40.2511 18.7066 35.8662ZM22.0796 35.8662C22.0796 38.4522 24.2159 40.476 26.6894 40.476C29.1629 40.476 31.2992 38.3397 31.2992 35.8662C31.2992 33.2802 29.1629 31.2564 26.6894 31.2564C24.2159 31.144 22.1921 33.2802 22.0796 35.8662ZM46.5901 43.9614V34.517C46.5901 32.7181 45.2409 31.2564 43.5544 31.2564C41.8679 31.2564 40.5187 32.7181 40.5187 34.517V43.9614H37.1457V34.517C37.1457 30.8067 40.069 27.771 43.5544 27.771C47.1523 27.771 49.9631 30.8067 49.9631 34.517V43.9614H46.5901ZM0.0427282 35.8662C0.0427282 31.3689 3.64059 27.771 8.13792 27.771C9.82442 27.771 11.3985 28.3332 12.7477 29.2326V20.8001H16.2331V35.8662C16.2331 40.3635 12.6353 43.9614 8.13792 43.9614C3.64059 43.9614 0.0427282 40.2511 0.0427282 35.8662ZM3.52816 35.8662C3.52816 38.4522 5.66439 40.476 8.13792 40.476C10.6115 40.476 12.7477 38.3397 12.7477 35.8662C12.7477 33.2802 10.6115 31.2564 8.13792 31.2564C5.55196 31.144 3.52816 33.2802 3.52816 35.8662ZM30.6246 27.3213V25.0726C30.6246 25.0726 34.7846 24.398 37.2581 27.6586C36.2462 28.7829 34.897 30.357 34.897 30.357C34.897 30.357 33.4354 27.6586 30.6246 27.3213ZM68.5146 27.2088C68.2897 24.9602 66.2659 24.0607 63.9048 24.0607H60.7567H60.6442H60.4194C55.9221 24.0607 52.3242 20.4629 52.3242 15.9655C52.3242 11.4682 55.9221 7.87033 60.4194 7.87033H66.7156C66.9405 7.87033 67.6151 7.87033 68.5146 6.97086C69.8638 8.54493 70.8757 9.66926 70.8757 9.66926C70.8757 9.66926 69.6389 11.2433 68.0648 11.3558H67.0529C68.0648 12.705 68.5146 14.279 68.5146 15.9655C68.5146 17.7645 67.84 19.5634 66.7156 21.025C69.6389 21.9245 71.7751 24.0607 72 27.2088H68.5146ZM55.8096 15.9655C55.8096 18.5515 57.8334 20.5753 60.4194 20.5753C63.0053 20.5753 65.0291 18.5515 65.0291 15.9655C65.0291 13.3796 63.0053 11.3558 60.4194 11.3558C57.9458 11.3558 55.8096 13.3796 55.8096 15.9655ZM7.23846 24.2856C2.74113 23.8358 -0.407005 19.7882 0.0427282 15.2909C0.492461 11.1309 3.97789 8.09519 8.13792 7.98276C9.82442 7.98276 11.3985 8.54493 12.7477 9.44439V0H16.2331V18.2142H12.7477V16.1904C12.7477 13.6044 10.6115 11.5806 8.13792 11.5806C5.55196 11.5806 3.41573 13.6044 3.41573 16.1904C3.41573 18.7764 5.43952 20.9126 8.02549 20.9126C8.81252 20.9126 9.59955 20.8001 10.3866 20.5753V23.9483C9.59955 24.1731 8.81252 24.398 8.02549 24.2856C7.91305 24.2856 7.57576 24.2856 7.23846 24.2856ZM46.5901 24.2856V14.8412C46.5901 13.0423 45.2409 11.5806 43.5544 11.5806C41.8679 11.5806 40.5187 13.0423 40.5187 14.8412V24.2856H37.1457V14.8412C37.1457 11.1309 40.069 8.09519 43.5544 8.09519C47.1523 8.09519 49.9631 11.1309 49.9631 14.8412V24.2856H46.5901ZM18.5942 16.078C18.5942 11.5806 22.3045 7.98276 26.6894 7.98276C31.1867 7.98276 34.7846 11.6931 34.7846 16.078C34.7846 20.5753 31.1867 24.1731 26.6894 24.1731C22.1921 24.2856 18.5942 20.5753 18.5942 16.078ZM21.9672 16.078C21.9672 18.6639 24.1034 20.6877 26.577 20.6877C29.0505 20.6877 31.1867 18.5515 31.1867 16.078C31.1867 13.6044 29.0505 11.4682 26.577 11.4682C24.1034 11.4682 22.0796 13.6044 21.9672 16.078ZM30.6246 7.42059V5.17193C30.6246 5.17193 34.7846 4.49733 37.2581 7.75789C36.2462 8.88223 34.897 10.4563 34.897 10.4563C34.897 10.4563 33.4354 7.75789 30.6246 7.42059Z" fill="#245393"/>
</svg>
