<svg width="72" height="72" viewBox="0 0 72 72" fill="none" xmlns="http://www.w3.org/2000/svg">
<rect width="72" height="72" rx="16" fill="#2B36D0"/>
<path fill-rule="evenodd" clip-rule="evenodd" d="M47.1668 34.6653C47.1668 35.3874 46.5888 35.9726 45.8756 35.9726H43.7236V33.7937C43.7236 33.0716 44.3016 32.4863 45.0148 32.4863H47.1668V29H43.7236C41.822 29 40.2803 30.561 40.2803 32.4863V35.9726V39.459V42.9453H43.7236V39.459H47.1668C49.0684 39.459 50.6101 37.898 50.6101 35.9726V32.4863H47.1668V34.6653Z" fill="white"/>
<path fill-rule="evenodd" clip-rule="evenodd" d="M34.578 35.9726V38.1516C34.578 38.8737 33.9999 39.459 33.2867 39.459H31.1347V35.9726V33.7937C31.1347 33.0716 31.7127 32.4863 32.4259 32.4863H34.578V35.9726ZM34.578 29H31.1347C29.2331 29 27.6914 30.561 27.6914 32.4863V35.9726V39.459C27.6914 41.3843 29.2331 42.9453 31.1347 42.9453H34.578C36.4795 42.9453 38.0212 41.3843 38.0212 39.459V35.9726V32.4863C38.0212 30.561 36.4795 29 34.578 29Z" fill="white"/>
<path fill-rule="evenodd" clip-rule="evenodd" d="M21.687 29H18.2653H14.8435H11.4218C9.53209 29 8 30.561 8 32.4863V35.9726V39.459V42.9453H11.4218V39.459V35.9726V33.7937C11.4218 33.0716 11.9962 32.4863 12.7049 32.4863H14.8435V35.9726V39.459V42.9453H18.2653V39.459V35.9726V33.7937C18.2653 33.0716 18.8397 32.4863 19.5484 32.4863H21.6866V35.9726V39.459V42.9453H25.1084V39.459V35.9726V32.4863H25.1088C25.1088 30.561 23.5767 29 21.687 29Z" fill="white"/>
<path fill-rule="evenodd" clip-rule="evenodd" d="M56.3134 35.9726V33.7937C56.3134 33.0716 56.8914 32.4863 57.6046 32.4863H59.7567V34.6653C59.7567 35.3874 59.1786 35.9726 58.4654 35.9726H56.3134ZM59.7567 29H56.3134C54.4118 29 52.8701 30.561 52.8701 32.4863V35.9726V39.459V42.9453H56.3134V39.459H59.7567V42.9453H63.1999V39.459V35.9726V32.4863C63.1999 30.561 61.6582 29 59.7567 29Z" fill="white"/>
</svg>
