<svg width="72" height="72" viewBox="0 0 72 72" fill="none" xmlns="http://www.w3.org/2000/svg">
<path d="M56.1782 0H15.8218C7.08366 0 0 7.08366 0 15.8218V56.1782C0 64.9163 7.08366 72 15.8218 72H56.1782C64.9163 72 72 64.9163 72 56.1782V15.8218C72 7.08366 64.9163 0 56.1782 0Z" fill="#01B384"/>
<path d="M36.0001 25.7605C32.089 25.7649 28.3393 27.3205 25.5736 30.086C22.8079 32.8516 21.2521 36.6012 21.2476 40.5124C21.2476 48.5097 28.2728 55.2657 36.5886 55.2657C39.4288 55.2921 42.2465 54.7606 44.8819 53.7013C45.2813 53.542 45.6455 53.3057 45.9535 53.0057C46.2616 52.7058 46.5076 52.3481 46.6775 51.9531C46.8473 51.5581 46.9377 51.1335 46.9434 50.7035C46.9492 50.2736 46.8702 49.8467 46.711 49.4473C46.5517 49.0478 46.3154 48.6837 46.0155 48.3756C45.7155 48.0675 45.3578 47.8215 44.9628 47.6517C44.5678 47.4819 44.1432 47.3915 43.7132 47.3857C43.2833 47.38 42.8564 47.459 42.457 47.6182C40.5945 48.3748 38.5986 48.7483 36.5886 48.7163C31.9049 48.7163 27.7966 44.8825 27.7966 40.5124C27.7972 38.6274 28.447 36.8001 29.6365 35.3379C30.8261 33.8757 32.483 32.8678 34.3284 32.4837C36.1738 32.0995 38.0952 32.3627 39.7695 33.2288C41.4437 34.0949 42.7686 35.5111 43.5213 37.2393H37.2429C36.3744 37.2393 35.5414 37.5843 34.9273 38.1984C34.3132 38.8125 33.9682 39.6455 33.9682 40.514C33.9682 41.3825 34.3132 42.2154 34.9273 42.8295C35.5414 43.4436 36.3744 43.7887 37.2429 43.7887H47.4782C48.3461 43.7882 49.1784 43.4432 49.7921 42.8295C50.4059 42.2157 50.7509 41.3835 50.7513 40.5155C50.7476 36.6041 49.1924 32.8538 46.4269 30.0876C43.6615 27.3214 39.9116 25.7652 36.0001 25.7605Z" fill="white"/>
<path d="M37.3168 15.1855C35.7023 16.797 34.7295 18.941 34.5801 21.2172C34.5704 21.3861 34.5965 21.5552 34.6568 21.7133C34.717 21.8714 34.81 22.015 34.9296 22.1347C35.0493 22.2543 35.1929 22.3473 35.351 22.4076C35.5091 22.4678 35.6782 22.4939 35.8471 22.4842C38.1228 22.3326 40.2661 21.3602 41.8788 19.7475C43.4915 18.1347 44.4639 15.9915 44.6155 13.7158C44.6253 13.5468 44.5992 13.3778 44.539 13.2196C44.4788 13.0615 44.3858 12.9178 44.2661 12.7982C44.1465 12.6785 44.0028 12.5855 43.8447 12.5253C43.6865 12.4651 43.5175 12.439 43.3485 12.4488C41.0723 12.5981 38.9282 13.5709 37.3168 15.1855Z" fill="white"/>
</svg>
